<svg width="1209" height="1926" viewBox="0 0 1209 1926" fill="none" xmlns="http://www.w3.org/2000/svg">
<rect width="1209" height="1926" fill="#141115"/>
<path d="M626.558 388.522L604.098 401.147V389.856V377.586L626.558 364.961V388.522ZM625.652 363.474L603.228 376.079L580.803 363.474L603.228 350.869L625.652 363.474ZM579.897 388.522V364.961L602.357 377.586V389.856V401.147L579.897 388.522Z" stroke="white" stroke-width="1.74015"/>
<path d="M554.645 349.835L602.901 321.639L651.811 349.838V404.697L602.901 432.393L554.645 404.7V349.835Z" stroke="white" stroke-width="1.74015"/>
<path d="M532.112 336.618L603.228 296.575L674.345 336.618V415.658L603.228 455.37L532.112 415.658L532.112 336.618Z" stroke="white" stroke-width="1.74015"/>
<path d="M554.828 349.811L532.732 337.117" stroke="white" stroke-width="1.74015"/>
<path d="M651.529 349.869L674.243 336.82" stroke="white" stroke-width="1.74015"/>
<path d="M603.229 431.869L603.229 454.662" stroke="white" stroke-width="1.74015"/>
<path d="M603.227 482.471L603.227 510.661" stroke="white" stroke-width="1.74015"/>
<path d="M695.82 324.426L720.021 310.523" stroke="white" stroke-width="1.74015"/>
<path d="M510.637 324.426L486.436 310.523" stroke="white" stroke-width="1.74015"/>
<path d="M510.245 324.277L603.23 271.522L696.216 324.277V429.761L603.23 482.515L510.245 429.761V324.277Z" stroke="white" stroke-width="1.74015"/>
<path d="M486.552 310.261L603.229 242.292L719.906 310.261V444.38L603.229 511.744L486.552 444.38L486.552 310.261Z" stroke="white" stroke-width="1.74015"/>
<rect width="139.212" height="139.212" transform="matrix(0.866025 0.5 -0.866025 0.5 602.766 753.751)" fill="url(#paint0_linear_531_1845)"/>
<rect width="139.212" height="139.212" transform="matrix(0.866025 0.5 -0.866025 0.5 602.766 725.908)" fill="url(#paint1_linear_531_1845)"/>
<rect width="139.212" height="139.212" transform="matrix(0.866025 0.5 -0.866025 0.5 602.766 698.065)" fill="url(#paint2_linear_531_1845)"/>
<rect width="139.212" height="139.212" transform="matrix(0.866025 0.5 -0.866025 0.5 602.766 670.224)" fill="url(#paint3_linear_531_1845)"/>
<rect width="139.212" height="139.212" transform="matrix(0.866025 0.5 -0.866025 0.5 602.766 642.381)" fill="url(#paint4_linear_531_1845)"/>
<path d="M475.25 1226.77L604.021 1152.22L604.021 1012.16L475.25 1086.71L475.25 1226.77Z" fill="url(#paint5_linear_531_1845)"/>
<path fill-rule="evenodd" clip-rule="evenodd" d="M604.021 1138.67L604.021 1143.19L475.25 1217.74L475.25 1213.22L604.021 1138.67ZM604.021 1134.15L475.25 1208.7L475.25 1204.18L604.021 1129.63L604.021 1134.15ZM475.25 1195.15L475.25 1199.66L604.021 1125.11L604.021 1120.59L475.25 1195.15ZM475.25 1190.63L475.25 1186.11L604.021 1111.56L604.021 1116.08L475.25 1190.63ZM475.25 1177.07L475.25 1181.59L604.021 1107.04L604.021 1102.52L475.25 1177.07ZM475.25 1172.56L475.25 1168.04L604.021 1093.49L604.021 1098L475.25 1172.56ZM475.25 1159L475.25 1163.52L604.021 1088.97L604.021 1084.45L475.25 1159ZM475.25 1154.48L475.25 1149.96L604.021 1075.41L604.021 1079.93L475.25 1154.48ZM475.25 1140.93L475.25 1145.45L604.021 1070.89L604.021 1066.38L475.25 1140.93ZM475.25 1136.41L475.25 1131.89L604.021 1057.34L604.021 1061.86L475.25 1136.41ZM475.25 1122.85L475.25 1127.37L604.021 1052.82L604.021 1048.3L475.25 1122.85ZM475.25 1118.34L475.25 1113.82L604.021 1039.27L604.021 1043.78L475.25 1118.34ZM475.25 1104.78L475.25 1109.3L604.021 1034.75L604.021 1030.23L475.25 1104.78ZM475.25 1100.26L475.25 1095.74L604.021 1021.19L604.021 1025.71L475.25 1100.26ZM475.25 1086.71L475.25 1091.23L604.021 1016.67L604.021 1012.16L475.25 1086.71ZM604.021 1152.22L604.021 1147.7L475.25 1222.26L475.25 1226.77L604.021 1152.22Z" fill="url(#paint6_linear_531_1845)"/>
<path d="M604.018 1152.22L732.789 1226.77L732.789 1086.71L604.018 1012.16L604.018 1152.22Z" fill="url(#paint7_linear_531_1845)"/>
<path fill-rule="evenodd" clip-rule="evenodd" d="M732.789 1213.22L732.789 1217.74L604.018 1143.19L604.018 1138.67L732.789 1213.22ZM732.789 1208.7L604.018 1134.15L604.018 1129.63L732.789 1204.18L732.789 1208.7ZM604.018 1120.6L604.018 1125.11L732.789 1199.67L732.789 1195.15L604.018 1120.6ZM604.018 1116.08L604.018 1111.56L732.789 1186.11L732.789 1190.63L604.018 1116.08ZM604.018 1102.52L604.018 1107.04L732.789 1181.59L732.789 1177.07L604.018 1102.52ZM604.018 1098L604.018 1093.49L732.789 1168.04L732.789 1172.56L604.018 1098ZM604.018 1084.45L604.018 1088.97L732.789 1163.52L732.789 1159L604.018 1084.45ZM604.018 1079.93L604.018 1075.41L732.789 1149.96L732.789 1154.48L604.018 1079.93ZM604.018 1066.38L604.018 1070.89L732.789 1145.45L732.789 1140.93L604.018 1066.38ZM604.018 1061.86L604.018 1057.34L732.789 1131.89L732.789 1136.41L604.018 1061.86ZM604.018 1048.3L604.018 1052.82L732.789 1127.37L732.789 1122.85L604.018 1048.3ZM604.018 1043.78L604.018 1039.27L732.789 1113.82L732.789 1118.34L604.018 1043.78ZM604.018 1030.23L604.018 1034.75L732.789 1109.3L732.789 1104.78L604.018 1030.23ZM604.018 1025.71L604.018 1021.19L732.789 1095.74L732.789 1100.26L604.018 1025.71ZM604.018 1012.16L604.018 1016.67L732.789 1091.23L732.789 1086.71L604.018 1012.16ZM732.789 1226.77L732.789 1222.26L604.018 1147.7L604.018 1152.22L732.789 1226.77Z" fill="url(#paint8_linear_531_1845)"/>
<path d="M475.25 1086.71L604.021 1161.26L604.021 1301.33L475.25 1226.77L475.25 1086.71Z" fill="url(#paint9_linear_531_1845)"/>
<path fill-rule="evenodd" clip-rule="evenodd" d="M604.021 1174.81L604.021 1170.3L475.25 1095.74L475.25 1100.26L604.021 1174.81ZM604.021 1179.33L475.25 1104.78L475.25 1109.3L604.021 1183.85L604.021 1179.33ZM475.25 1118.34L475.25 1113.82L604.021 1188.37L604.021 1192.89L475.25 1118.34ZM475.25 1122.85L475.25 1127.37L604.021 1201.92L604.021 1197.4L475.25 1122.85ZM475.25 1136.41L475.25 1131.89L604.021 1206.44L604.021 1210.96L475.25 1136.41ZM475.25 1140.93L475.25 1145.44L604.021 1220L604.021 1215.48L475.25 1140.93ZM475.25 1154.48L475.25 1149.96L604.021 1224.51L604.021 1229.03L475.25 1154.48ZM475.25 1159L475.25 1163.52L604.021 1238.07L604.021 1233.55L475.25 1159ZM475.25 1172.55L475.25 1168.04L604.021 1242.59L604.021 1247.11L475.25 1172.55ZM475.25 1177.07L475.25 1181.59L604.021 1256.14L604.021 1251.62L475.25 1177.07ZM475.25 1190.63L475.25 1186.11L604.021 1260.66L604.021 1265.18L475.25 1190.63ZM475.25 1195.15L475.25 1199.66L604.021 1274.22L604.021 1269.7L475.25 1195.15ZM475.25 1208.7L475.25 1204.18L604.021 1278.73L604.021 1283.25L475.25 1208.7ZM475.25 1213.22L475.25 1217.74L604.021 1292.29L604.021 1287.77L475.25 1213.22ZM475.25 1226.77L475.25 1222.26L604.021 1296.81L604.021 1301.33L475.25 1226.77ZM604.021 1161.26L604.021 1165.78L475.25 1091.23L475.25 1086.71L604.021 1161.26Z" fill="url(#paint10_linear_531_1845)"/>
<path d="M604.018 1161.26L732.789 1086.71L732.789 1226.77L604.018 1301.33L604.018 1161.26Z" fill="url(#paint11_linear_531_1845)"/>
<path fill-rule="evenodd" clip-rule="evenodd" d="M732.789 1100.26L732.789 1095.74L604.018 1170.29L604.018 1174.81L732.789 1100.26ZM732.789 1104.78L604.018 1179.33L604.018 1183.85L732.789 1109.3L732.789 1104.78ZM604.018 1192.89L604.018 1188.37L732.789 1113.82L732.789 1118.33L604.018 1192.89ZM604.018 1197.4L604.018 1201.92L732.789 1127.37L732.789 1122.85L604.018 1197.4ZM604.018 1210.96L604.018 1206.44L732.789 1131.89L732.789 1136.41L604.018 1210.96ZM604.018 1215.48L604.018 1220L732.789 1145.44L732.789 1140.93L604.018 1215.48ZM604.018 1229.03L604.018 1224.51L732.789 1149.96L732.789 1154.48L604.018 1229.03ZM604.018 1233.55L604.018 1238.07L732.789 1163.52L732.789 1159L604.018 1233.55ZM604.018 1247.11L604.018 1242.59L732.789 1168.04L732.789 1172.55L604.018 1247.11ZM604.018 1251.62L604.018 1256.14L732.789 1181.59L732.789 1177.07L604.018 1251.62ZM604.018 1265.18L604.018 1260.66L732.789 1186.11L732.789 1190.63L604.018 1265.18ZM604.018 1269.7L604.018 1274.22L732.789 1199.66L732.789 1195.15L604.018 1269.7ZM604.018 1283.25L604.018 1278.73L732.789 1204.18L732.789 1208.7L604.018 1283.25ZM604.018 1287.77L604.018 1292.29L732.789 1217.74L732.789 1213.22L604.018 1287.77ZM604.018 1301.33L604.018 1296.81L732.789 1222.26L732.789 1226.77L604.018 1301.33ZM732.789 1086.71L732.789 1091.22L604.018 1165.78L604.018 1161.26L732.789 1086.71Z" fill="url(#paint12_linear_531_1845)"/>
<path d="M533.934 1451.54L499.607 1517.02M533.934 1451.54L569.09 1517.02M533.934 1451.54H604.016M499.607 1517.02L603.816 1646.43M499.607 1517.02H569.09M708.425 1517.02L674.099 1451.54M708.425 1517.02L603.816 1646.43M708.425 1517.02H638.543M674.099 1451.54L638.543 1517.02M674.099 1451.54H604.016M603.816 1646.43L569.09 1517.02M603.816 1646.43L638.543 1517.02M569.09 1517.02H638.543M569.09 1517.02L604.016 1451.54M638.543 1517.02L604.016 1451.54" stroke="url(#paint13_radial_531_1845)" stroke-width="3.4803"/>
<defs>
<linearGradient id="paint0_linear_531_1845" x1="155.595" y1="154.152" x2="30.3039" y2="154.152" gradientUnits="userSpaceOnUse">
<stop stop-color="#F7F7F7" stop-opacity="0.85"/>
<stop offset="1" stop-color="#3F3F3F" stop-opacity="0.83"/>
</linearGradient>
<linearGradient id="paint1_linear_531_1845" x1="153.855" y1="152.412" x2="8.94624" y2="158.199" gradientUnits="userSpaceOnUse">
<stop stop-color="white"/>
<stop offset="1" stop-color="#3F3F3F"/>
</linearGradient>
<linearGradient id="paint2_linear_531_1845" x1="150.374" y1="148.932" x2="8.94579" y2="154.714" gradientUnits="userSpaceOnUse">
<stop stop-color="white"/>
<stop offset="1" stop-color="#3F3F3F"/>
</linearGradient>
<linearGradient id="paint3_linear_531_1845" x1="153.585" y1="156.161" x2="4.93678" y2="158.144" gradientUnits="userSpaceOnUse">
<stop stop-color="white"/>
<stop offset="1" stop-color="#3F3F3F"/>
</linearGradient>
<linearGradient id="paint4_linear_531_1845" x1="139.933" y1="138.491" x2="-0.0145028" y2="140.472" gradientUnits="userSpaceOnUse">
<stop stop-color="white"/>
<stop offset="1" stop-color="#3F3F3F"/>
</linearGradient>
<linearGradient id="paint5_linear_531_1845" x1="539.636" y1="1189.6" x2="478.896" y2="1084.4" gradientUnits="userSpaceOnUse">
<stop stop-color="#353535"/>
<stop offset="1" stop-color="white"/>
</linearGradient>
<linearGradient id="paint6_linear_531_1845" x1="582.559" y1="1184.98" x2="465.199" y2="1069.75" gradientUnits="userSpaceOnUse">
<stop stop-color="#181818"/>
<stop offset="1" stop-color="#181818" stop-opacity="0"/>
</linearGradient>
<linearGradient id="paint7_linear_531_1845" x1="615.313" y1="1159" x2="685.475" y2="1070.74" gradientUnits="userSpaceOnUse">
<stop stop-color="#5F5C5B"/>
<stop offset="1" stop-color="white"/>
</linearGradient>
<linearGradient id="paint8_linear_531_1845" x1="606.277" y1="1162.39" x2="719.75" y2="1075.41" gradientUnits="userSpaceOnUse">
<stop stop-color="#181818"/>
<stop offset="1" stop-color="#181818" stop-opacity="0"/>
</linearGradient>
<linearGradient id="paint9_linear_531_1845" x1="504.833" y1="1100.9" x2="461.248" y2="1275.86" gradientUnits="userSpaceOnUse">
<stop stop-color="white"/>
<stop offset="1" stop-color="#5F5F5F"/>
</linearGradient>
<linearGradient id="paint10_linear_531_1845" x1="506.573" y1="1107.86" x2="463.695" y2="1239.4" gradientUnits="userSpaceOnUse">
<stop stop-color="#282828"/>
<stop offset="1" stop-color="#181818"/>
</linearGradient>
<linearGradient id="paint11_linear_531_1845" x1="624.899" y1="1158.33" x2="730.239" y2="1181.04" gradientUnits="userSpaceOnUse">
<stop stop-color="white"/>
<stop offset="1" stop-color="#4E4E4E"/>
</linearGradient>
<linearGradient id="paint12_linear_531_1845" x1="617.939" y1="1163.55" x2="759.673" y2="1173.95" gradientUnits="userSpaceOnUse">
<stop stop-color="#1C1C1C"/>
<stop offset="1" stop-color="#181818"/>
</linearGradient>
<radialGradient id="paint13_radial_531_1845" cx="0" cy="0" r="1" gradientUnits="userSpaceOnUse" gradientTransform="translate(576.174 1518.53) rotate(55.7414) scale(182.383 180.897)">
<stop stop-color="white"/>
<stop offset="1" stop-color="white" stop-opacity="0"/>
</radialGradient>
</defs>
</svg>
